<svg width="59" height="74" viewBox="0 0 59 74" fill="none" xmlns="http://www.w3.org/2000/svg">
    <path d="M58.1693 73.1635V72.327H1.6615V15.7845L16.0294 1.67298H43.0579L57.3385 15.7845V73.1635H58.1693V72.327V73.1635H59V15.0819L43.7391 0H15.3565L0 15.0777V74H59V73.1635H58.1693Z" fill="#B1B5BA"/>
    <path d="M16.1747 10.1925H42.9706V8.51953H16.1747" fill="#B1B5BA"/>
    <path d="M52.2916 15.8014V49.0853C52.2916 49.307 52.2044 49.5035 52.059 49.6499C51.9136 49.7963 51.7184 49.8841 51.4983 49.8841H7.78825C7.5681 49.8841 7.37287 49.7963 7.22749 49.6499C7.08211 49.5035 6.99488 49.307 6.99488 49.0853V15.8014H5.33337V49.0853C5.33337 50.4488 6.42997 51.5571 7.78825 51.5571H51.4983C52.8524 51.5571 53.9531 50.4529 53.9531 49.0853V15.8014H52.2916Z" fill="#B1B5BA"/>
    <path d="M14.8622 0.836548V13.8523C14.8622 14.1576 14.613 14.4086 14.3097 14.4086H1.0177V16.0816H14.3056C15.5309 16.0816 16.5195 15.082 16.5195 13.8523V0.836548H14.8622Z" fill="#B1B5BA"/>
    <path d="M42.1399 1.3927V14.4085C42.1399 15.0317 42.4016 15.5963 42.8128 15.9978C43.224 16.3993 43.7889 16.6419 44.4037 16.6419H58.1693V14.9689H44.4037C44.2251 14.9689 44.0755 14.902 43.9675 14.7933C43.8595 14.6845 43.8014 14.559 43.8014 14.4085V1.3927H42.1399Z" fill="#B1B5BA"/>
    <path d="M17.9816 23.4929C17.9816 24.4967 17.1716 25.3123 16.1747 25.3123C15.1778 25.3123 14.3678 24.4967 14.3678 23.4929C14.3678 22.4892 15.1778 21.6736 16.1747 21.6736C17.1716 21.6736 17.9816 22.485 17.9816 23.4929Z" fill="#B1B5BA"/>
    <path d="M44.3081 23.4929C44.3081 24.4967 43.4981 25.3123 42.5012 25.3123C41.5043 25.3123 40.6943 24.4967 40.6943 23.4929C40.6943 22.4892 41.5043 21.6736 42.5012 21.6736C43.4981 21.6736 44.3081 22.485 44.3081 23.4929Z" fill="#B1B5BA"/>
    <path d="M23.1115 32.188C23.1447 32.1504 23.3151 31.9496 23.6183 31.6652C24.0669 31.2386 24.8063 30.6321 25.7533 30.1428C26.7045 29.6534 27.8551 29.277 29.1719 29.277C30.1189 29.277 31.1615 29.4694 32.2996 29.9755C33.4378 30.4816 34.6756 31.3013 35.9923 32.5728C36.3246 32.8906 36.848 32.8823 37.1678 32.5477C37.4835 32.2131 37.4752 31.6861 37.1429 31.3641C35.7099 29.9797 34.3142 29.0386 32.9725 28.4405C31.6309 27.8466 30.3515 27.5999 29.176 27.5999C26.9953 27.5999 25.2133 28.428 23.963 29.2645C23.3358 29.6827 22.8415 30.1051 22.4843 30.4439C22.1312 30.7785 21.9111 31.0336 21.8529 31.1006C21.5539 31.4519 21.5954 31.9789 21.9443 32.28C22.2891 32.577 22.8124 32.5393 23.1115 32.188Z" fill="#B1B5BA"/>
    <path d="M46.3933 33.6351C46.3933 34.5134 45.6872 35.2244 44.8149 35.2244C43.9426 35.2244 43.2365 34.5134 43.2365 33.6351C43.2365 32.7568 43.9426 29.528 44.8149 29.528C45.6872 29.528 46.3933 32.7568 46.3933 33.6351Z" fill="#6DC8F1"/>
</svg>
