<svg width="5" height="5" viewBox="0 0 5 5" fill="none" xmlns="http://www.w3.org/2000/svg">
    <path fill-rule="evenodd" clip-rule="evenodd" d="M1.7821 2.50224L0.124929 4.23826C-0.041643 4.41275 -0.041643 4.69463 0.124929 4.86913C0.291501 5.04362 0.560578 5.04362 0.72715 4.86913L2.68757 2.81544C2.85414 2.64094 2.85414 2.35906 2.68757 2.18456L0.72715 0.130872C0.560578 -0.0436244 0.2915 -0.0436244 0.124929 0.130872C-0.0373721 0.305369 -0.0416431 0.591723 0.124929 0.76622L1.7821 2.50224Z" fill="#212121"/>
    <path fill-rule="evenodd" clip-rule="evenodd" d="M3.7821 2.50224L2.12493 4.23826C1.95836 4.41275 1.95836 4.69463 2.12493 4.86913C2.2915 5.04362 2.56058 5.04362 2.72715 4.86913L4.68757 2.81544C4.85414 2.64094 4.85414 2.35906 4.68757 2.18456L2.72715 0.130872C2.56058 -0.0436244 2.2915 -0.0436244 2.12493 0.130872C1.96263 0.305369 1.95836 0.591723 2.12493 0.76622L3.7821 2.50224Z" fill="#212121"/>
</svg>
