<svg width="87" height="113" viewBox="0 0 87 113" fill="none" xmlns="http://www.w3.org/2000/svg">
    <path d="M68.1983 1.58398L85.6265 19.6181V108.512C85.6265 110.232 84.2797 111.626 82.6168 111.626H4.38296C2.72005 111.626 1.37329 110.232 1.37329 108.512V4.69856C1.37329 2.97794 2.72005 1.58398 4.38296 1.58398H68.1983Z" fill="#F8F9F9" stroke="#D2D3D4" stroke-width="2" stroke-miterlimit="10"/>
    <path d="M68.1511 19.473V1L86 19.473H68.1511Z" fill="#D2D3D4"/>
    <path d="M68.0714 56.9747C68.0714 56.466 68.0216 55.9573 67.9917 55.3912C67.2324 55.3912 66.6549 55.3912 66.0774 55.3912C52.1119 55.3912 38.149 55.3888 24.1835 55.3937C23.367 55.3937 22.5505 55.4411 21.734 55.4661H21.7315H21.729L21.7365 55.4685C21.8211 56.1269 21.9804 56.7877 21.9829 57.446C22.0003 65.7748 21.9854 74.1011 22.0028 82.4299C22.0078 85.1505 22.9065 86.1305 25.488 86.1355C38.5348 86.158 51.5817 86.1579 64.6261 86.133C67.1229 86.128 68.0739 85.0782 68.0739 82.5397C68.0763 74.0188 68.0763 65.498 68.0714 56.9747Z" fill="#536DFE"/>
    <path d="M46.1399 48.1979C48.7388 47.5071 51.3154 46.7316 54.1209 45.9162C53.0405 43.0709 52.0448 40.4077 50.9992 37.7644C50.8922 37.4926 50.4242 37.1136 50.2275 37.1684C47.5091 37.9066 44.8106 38.7095 41.9702 39.5374C43.0382 42.4001 44.0065 45.0708 45.0595 47.7091C45.1691 47.9834 45.8312 48.2802 46.1399 48.1979Z" fill="#536DFE"/>
    <path d="M40.8576 49.6887C39.6801 46.6015 38.5898 43.7388 37.4596 40.7764C34.9005 41.5245 32.4285 42.2451 29.7649 43.0207C30.8901 46.018 31.9655 48.8782 33.1181 51.9529C35.7992 51.1674 38.2985 50.4368 40.8576 49.6887Z" fill="#536DFE"/>
    <path d="M25.3089 44.2529C23.1207 44.8963 21.062 45.5023 18.9236 46.1307C19.8322 48.8861 20.706 51.487 21.5424 54.0979C21.6818 54.5293 21.6744 55.0081 21.7341 55.4669C23.9745 54.6739 26.215 53.8834 28.5525 53.0555C27.4671 50.108 26.4042 47.2279 25.3089 44.2529Z" fill="#536DFE"/>
    <path d="M59.2017 44.4419C61.0936 43.9557 62.9632 43.3896 64.9646 42.8111C63.9166 39.699 62.9283 36.769 61.9251 33.7891C59.6149 34.4773 57.5512 35.0907 55.2734 35.7665C56.3439 38.6642 57.3147 41.3324 58.3429 43.9781C58.435 44.22 58.9602 44.5043 59.2017 44.4419Z" fill="#536DFE"/>
</svg>
